<?xml version="1.0" encoding="utf-8"?>
<!-- Generator: Adobe Illustrator 16.0.0, SVG Export Plug-In . SVG Version: 6.00 Build 0)  -->
<!DOCTYPE svg PUBLIC "-//W3C//DTD SVG 1.1//EN" "http://www.w3.org/Graphics/SVG/1.1/DTD/svg11.dtd">
<svg version="1.1" xmlns="http://www.w3.org/2000/svg" xmlns:xlink="http://www.w3.org/1999/xlink" x="0px" y="0px"
	 width="121.798px" height="79.723px" viewBox="0 0 121.798 79.723" enable-background="new 0 0 121.798 79.723"
	 xml:space="preserve">
<g id="Layer_5">
</g>
<g id="Layer_4">
</g>
<g id="Layer_3">
	<path fill="none" stroke="#000000" stroke-width="0.78" stroke-miterlimit="10" d="M25.417,33.865
		C28.258,17.57,42.475,5.182,59.58,5.182c17.222,0,31.509,12.55,34.219,29.002l0.095-0.017c1.149-0.217,2.335-0.331,3.547-0.331
		c10.492,0,18.999,8.506,18.999,18.998s-8.507,18.998-18.999,18.998c-5.732,0-10.829-2.494-14.312-6.51l0,0
		c-6.184,5.723-14.457,9.219-23.548,9.219c-8.378,0-16.063-3.062-22.058-8.01l0,0c-3.415,3.283-8.055,5.301-13.166,5.301
		c-10.491,0-18.998-8.506-18.998-18.998s8.507-18.998,18.998-18.998c6.53,0,12.291,3.294,15.71,8.311"/>
</g>
<g id="Layer_2">
</g>
</svg>
