<?xml version="1.0" encoding="utf-8"?>
<!-- Generator: Adobe Illustrator 16.0.0, SVG Export Plug-In . SVG Version: 6.00 Build 0)  -->
<!DOCTYPE svg PUBLIC "-//W3C//DTD SVG 1.1//EN" "http://www.w3.org/Graphics/SVG/1.1/DTD/svg11.dtd">
<svg version="1.1" id="Layer_1" xmlns="http://www.w3.org/2000/svg" xmlns:xlink="http://www.w3.org/1999/xlink" x="0px" y="0px"
	 width="121.797px" height="79.723px" viewBox="0 0 121.797 79.723" enable-background="new 0 0 121.797 79.723"
	 xml:space="preserve">
<g id="Layer_5">
</g>
<g id="Layer_4">
</g>
<g id="Layer_3">
	<path d="M58.312,74.907c-0.338-0.014-0.675-0.03-1.011-0.053l0.05-0.778c0.329,0.021,0.659,0.039,0.99,0.052L58.312,74.907z"/>
	<path d="M61.344,74.888l-0.039-0.779c0.33-0.017,0.658-0.036,0.986-0.062l0.062,0.777C62.019,74.849,61.682,74.871,61.344,74.888z"
		/>
	<path d="M54.284,74.524c-0.334-0.053-0.667-0.108-0.999-0.172l0.144-0.767c0.324,0.062,0.649,0.116,0.976,0.167L54.284,74.524z"/>
	<path d="M65.363,74.457l-0.127-0.771c0.325-0.054,0.647-0.112,0.972-0.176l0.148,0.766C66.027,74.342,65.696,74.401,65.363,74.457z
		"/>
	<path d="M50.332,73.67c-0.325-0.091-0.648-0.187-0.971-0.285l0.23-0.746c0.315,0.098,0.632,0.19,0.95,0.279L50.332,73.67z"/>
	<path d="M69.303,73.566l-0.215-0.75c0.316-0.091,0.632-0.187,0.943-0.285l0.238,0.741C69.952,73.376,69.627,73.474,69.303,73.566z"
		/>
	<path d="M46.506,72.361c-0.313-0.128-0.624-0.26-0.932-0.396l0.316-0.713c0.3,0.133,0.604,0.263,0.909,0.387L46.506,72.361z"/>
	<path d="M73.116,72.225l-0.302-0.719c0.304-0.128,0.604-0.259,0.905-0.396l0.322,0.711C73.736,71.96,73.426,72.095,73.116,72.225z"
		/>
	<path d="M97.443,72.222l-0.383-0.004l0.021-0.779l0.36,0.004c0.203-0.001,0.41-0.004,0.615-0.011l0.024,0.779
		C97.87,72.218,97.657,72.221,97.443,72.222z"/>
	<path d="M24.594,72.22l-0.009-0.779c0.328-0.004,0.654-0.017,0.978-0.038l0.051,0.779C25.276,72.203,24.937,72.216,24.594,72.22z"
		/>
	<path d="M21.544,72.02c-0.338-0.049-0.674-0.105-1.006-0.173l0.153-0.766c0.319,0.063,0.641,0.12,0.964,0.167L21.544,72.02z"/>
	<path d="M94.018,71.925c-0.337-0.06-0.671-0.127-1-0.204l0.176-0.76c0.316,0.073,0.639,0.139,0.961,0.196L94.018,71.925z"/>
	<path d="M101.122,71.873l-0.148-0.767c0.322-0.062,0.643-0.132,0.957-0.211l0.188,0.758
		C101.788,71.735,101.458,71.809,101.122,71.873z"/>
	<path d="M28.64,71.747l-0.173-0.761c0.32-0.072,0.637-0.152,0.95-0.24l0.211,0.75C29.302,71.588,28.973,71.672,28.64,71.747z"/>
	<path d="M17.594,71.01c-0.32-0.119-0.636-0.247-0.947-0.383l0.311-0.715c0.3,0.13,0.603,0.252,0.91,0.366L17.594,71.01z"/>
	<path d="M90.102,70.797c-0.316-0.129-0.629-0.266-0.936-0.413l0.336-0.703c0.293,0.14,0.592,0.271,0.895,0.395L90.102,70.797z"/>
	<path d="M105.019,70.687l-0.308-0.717c0.302-0.129,0.599-0.265,0.891-0.407l0.342,0.701
		C105.64,70.412,105.333,70.554,105.019,70.687z"/>
	<path d="M42.856,70.62c-0.295-0.161-0.588-0.328-0.879-0.498l0.394-0.674c0.284,0.166,0.571,0.328,0.861,0.487L42.856,70.62z"/>
	<path d="M76.747,70.451l-0.381-0.681c0.286-0.161,0.57-0.327,0.854-0.497l0.402,0.668C77.333,70.116,77.042,70.286,76.747,70.451z"
		/>
	<path d="M32.497,70.436l-0.328-0.707c0.296-0.138,0.589-0.283,0.877-0.436l0.364,0.688C33.111,70.141,32.806,70.292,32.497,70.436z
		"/>
	<path d="M13.945,69.192c-0.287-0.184-0.569-0.374-0.845-0.57l0.453-0.636c0.266,0.189,0.537,0.372,0.812,0.549L13.945,69.192z"/>
	<path d="M86.514,68.865c-0.281-0.193-0.557-0.394-0.826-0.601l0.475-0.619c0.26,0.199,0.523,0.392,0.793,0.574L86.514,68.865z"/>
	<path d="M108.575,68.709l-0.449-0.64c0.27-0.188,0.531-0.383,0.787-0.583l0.48,0.613C109.125,68.311,108.853,68.513,108.575,68.709
		z"/>
	<path d="M39.429,68.478c-0.275-0.193-0.547-0.393-0.817-0.594l0.467-0.625c0.264,0.197,0.531,0.392,0.8,0.582L39.429,68.478z"/>
	<path d="M35.993,68.344l-0.47-0.623c0.261-0.197,0.518-0.4,0.768-0.609l0.501,0.599C36.531,67.928,36.265,68.139,35.993,68.344z"/>
	<path d="M80.151,68.27l-0.459-0.631c0.268-0.194,0.531-0.392,0.792-0.592l0.478,0.617C80.694,67.87,80.424,68.071,80.151,68.27z"/>
	<path d="M10.759,66.653c-0.242-0.237-0.479-0.482-0.708-0.734l0.576-0.525c0.22,0.24,0.446,0.477,0.679,0.704L10.759,66.653z"/>
	<path d="M83.417,66.219c-0.199-0.209-0.393-0.423-0.582-0.641l0.181-0.156l-0.263-0.284l0.406-0.374l0.264,0.303
		c0.183,0.208,0.369,0.414,0.561,0.615L83.417,66.219z"/>
	<path d="M111.645,66.032l-0.572-0.531c0.223-0.239,0.438-0.483,0.648-0.734l0.598,0.5
		C112.101,65.527,111.875,65.783,111.645,66.032z"/>
	<path d="M8.169,63.509c-0.187-0.283-0.367-0.571-0.539-0.865l0.673-0.395c0.165,0.282,0.338,0.559,0.517,0.83L8.169,63.509z"/>
	<path d="M114.09,62.773l-0.67-0.399c0.168-0.28,0.328-0.565,0.481-0.854l0.688,0.365C114.433,62.185,114.265,62.481,114.09,62.773z
		"/>
	<path d="M6.295,59.896c-0.124-0.314-0.239-0.636-0.346-0.96l0.74-0.244c0.103,0.312,0.214,0.617,0.333,0.921L6.295,59.896z"/>
	<path d="M115.804,59.074l-0.738-0.25c0.104-0.31,0.201-0.62,0.29-0.937l0.75,0.213C116.013,58.429,115.913,58.754,115.804,59.074z"
		/>
	<path d="M5.22,55.967c-0.055-0.334-0.1-0.671-0.138-1.011l0.775-0.086c0.036,0.328,0.08,0.65,0.132,0.972L5.22,55.967z"/>
	<path d="M116.7,55.102l-0.775-0.09c0.037-0.323,0.066-0.647,0.088-0.977l0.779,0.051C116.768,54.426,116.738,54.765,116.7,55.102z"
		/>
	<path d="M5.77,51.938L4.991,51.9c0.016-0.342,0.041-0.681,0.075-1.018l0.776,0.078C5.809,51.284,5.785,51.609,5.77,51.938z"/>
	<path d="M115.969,51.1c-0.029-0.326-0.067-0.649-0.114-0.972l0.771-0.113c0.049,0.335,0.09,0.673,0.121,1.013L115.969,51.1z"/>
	<path d="M6.363,48.073l-0.754-0.199c0.087-0.33,0.183-0.656,0.286-0.979l0.743,0.238C6.539,47.442,6.447,47.757,6.363,48.073z"/>
	<path d="M115.204,47.268c-0.098-0.312-0.203-0.621-0.316-0.926l0.73-0.273c0.118,0.318,0.229,0.642,0.33,0.968L115.204,47.268z"/>
	<path d="M7.755,44.42L7.06,44.066c0.154-0.304,0.317-0.603,0.486-0.896l0.677,0.389C8.059,43.841,7.903,44.128,7.755,44.42z"/>
	<path d="M113.648,43.683c-0.16-0.284-0.329-0.562-0.504-0.838l0.657-0.42c0.184,0.286,0.357,0.577,0.525,0.873L113.648,43.683z"/>
	<path d="M9.883,41.138l-0.605-0.492c0.214-0.264,0.435-0.521,0.662-0.774l0.58,0.521C10.301,40.635,10.089,40.884,9.883,41.138z"/>
	<path d="M111.377,40.502c-0.219-0.245-0.44-0.483-0.67-0.716l0.558-0.547c0.237,0.241,0.471,0.489,0.696,0.746L111.377,40.502z"/>
	<path d="M38.279,40.487c-0.217-0.244-0.439-0.482-0.668-0.716l0.556-0.547c0.239,0.242,0.471,0.49,0.697,0.745L38.279,40.487z"/>
	<path d="M12.647,38.371l-0.491-0.605c0.264-0.214,0.533-0.422,0.808-0.622l0.46,0.631C13.16,37.967,12.901,38.165,12.647,38.371z"
		/>
	<path d="M108.493,37.862c-0.263-0.193-0.529-0.382-0.804-0.562l0.433-0.65c0.282,0.188,0.562,0.385,0.836,0.586L108.493,37.862z"/>
	<path d="M35.392,37.85c-0.262-0.193-0.53-0.381-0.803-0.561l0.43-0.65c0.284,0.188,0.563,0.382,0.837,0.584L35.392,37.85z"/>
	<path d="M15.924,36.243l-0.354-0.695c0.302-0.153,0.608-0.3,0.918-0.438l0.317,0.714C16.509,35.955,16.214,36.096,15.924,36.243z"
		/>
	<path d="M105.122,35.88c-0.297-0.135-0.599-0.263-0.904-0.382l0.285-0.728c0.317,0.125,0.633,0.257,0.941,0.397L105.122,35.88z"/>
	<path d="M32.017,35.871c-0.296-0.136-0.596-0.262-0.901-0.38l0.282-0.728c0.318,0.123,0.632,0.255,0.942,0.396L32.017,35.871z"/>
	<path d="M19.574,34.846l-0.199-0.754c0.327-0.087,0.658-0.165,0.993-0.235l0.159,0.765C20.206,34.687,19.888,34.763,19.574,34.846z
		"/>
	<path d="M101.409,34.649c-0.32-0.067-0.641-0.13-0.964-0.183l0.125-0.771c0.337,0.056,0.671,0.118,1.003,0.19L101.409,34.649z"/>
	<path d="M28.305,34.646c-0.318-0.067-0.64-0.129-0.963-0.182l0.125-0.771c0.337,0.056,0.671,0.117,1.003,0.189L28.305,34.646z"/>
	<path d="M23.437,34.248L23.4,33.469c0.317-0.015,0.636-0.021,0.957-0.021l0.061,0.778C24.048,34.226,23.741,34.233,23.437,34.248z"
		/>
	<path d="M96.542,34.247l-0.037-0.779c0.312-0.015,0.623-0.021,0.938-0.021l0.08,0.778C97.149,34.227,96.838,34.232,96.542,34.247z"
		/>
	<path d="M93.372,33.998c-0.056-0.326-0.115-0.649-0.182-0.973l0.766-0.153c0.065,0.33,0.129,0.661,0.187,0.993L93.372,33.998z"/>
	<path d="M25.801,33.933l-0.769-0.135c0.059-0.332,0.121-0.663,0.188-0.993l0.765,0.156C25.919,33.283,25.858,33.606,25.801,33.933z
		"/>
	<path d="M92.476,30.148c-0.093-0.315-0.19-0.631-0.293-0.942l0.741-0.242c0.104,0.32,0.205,0.643,0.3,0.967L92.476,30.148z"/>
	<path d="M26.705,30.085l-0.748-0.221c0.097-0.325,0.198-0.648,0.304-0.97l0.74,0.244C26.898,29.452,26.799,29.768,26.705,30.085z"
		/>
	<path d="M91.142,26.431c-0.13-0.303-0.263-0.603-0.399-0.9l0.709-0.326c0.139,0.305,0.275,0.611,0.407,0.921L91.142,26.431z"/>
	<path d="M28.049,26.366l-0.717-0.308c0.133-0.312,0.271-0.619,0.412-0.925l0.708,0.326C28.314,25.761,28.179,26.062,28.049,26.366z
		"/>
	<path d="M89.385,22.894c-0.164-0.286-0.331-0.568-0.502-0.851l0.666-0.406c0.175,0.287,0.346,0.576,0.513,0.868L89.385,22.894z"/>
	<path d="M29.814,22.827l-0.677-0.388c0.168-0.294,0.34-0.584,0.517-0.872l0.665,0.408C30.147,22.257,29.979,22.541,29.814,22.827z"
		/>
	<path d="M87.235,19.58c-0.195-0.266-0.395-0.527-0.598-0.787l0.615-0.48c0.207,0.267,0.41,0.534,0.608,0.806L87.235,19.58z"/>
	<path d="M31.976,19.518l-0.628-0.463c0.201-0.271,0.405-0.54,0.612-0.806l0.615,0.479C32.372,18.99,32.172,19.252,31.976,19.518z"
		/>
	<path d="M84.717,16.535c-0.227-0.241-0.453-0.48-0.686-0.716l0.557-0.547c0.236,0.24,0.47,0.483,0.699,0.73L84.717,16.535z"/>
	<path d="M34.502,16.477l-0.57-0.531c0.23-0.246,0.463-0.489,0.7-0.729l0.556,0.547C34.956,15.998,34.727,16.235,34.502,16.477z"/>
	<path d="M81.866,13.796c-0.25-0.214-0.505-0.424-0.761-0.631l0.487-0.607c0.265,0.211,0.523,0.427,0.779,0.646L81.866,13.796z"/>
	<path d="M37.36,13.746l-0.506-0.595c0.256-0.218,0.516-0.433,0.778-0.644l0.489,0.607C37.864,13.323,37.61,13.532,37.36,13.746z"/>
	<path d="M78.719,11.404c-0.273-0.184-0.551-0.363-0.83-0.542l0.418-0.657c0.283,0.18,0.566,0.363,0.847,0.552L78.719,11.404z"/>
	<path d="M40.511,11.36l-0.435-0.647c0.28-0.188,0.562-0.371,0.848-0.55l0.414,0.66C41.06,10.997,40.784,11.177,40.511,11.36z"/>
	<path d="M75.319,9.388c-0.294-0.151-0.589-0.3-0.887-0.442l0.338-0.702c0.305,0.146,0.605,0.297,0.906,0.451L75.319,9.388z"/>
	<path d="M43.914,9.353L43.557,8.66c0.299-0.154,0.6-0.305,0.904-0.448l0.336,0.703C44.5,9.057,44.206,9.202,43.914,9.353z"/>
	<path d="M71.708,7.777c-0.31-0.116-0.619-0.229-0.933-0.338l0.254-0.735c0.32,0.109,0.64,0.225,0.954,0.344L71.708,7.777z"/>
	<path d="M47.523,7.752l-0.273-0.73c0.314-0.116,0.629-0.229,0.948-0.341l0.254,0.738C48.14,7.525,47.831,7.637,47.523,7.752z"/>
	<path d="M67.934,6.596c-0.318-0.08-0.641-0.155-0.962-0.226l0.166-0.763c0.329,0.072,0.657,0.149,0.985,0.231L67.934,6.596z"/>
	<path d="M51.294,6.58l-0.188-0.758c0.326-0.08,0.654-0.156,0.984-0.229l0.167,0.762C51.935,6.426,51.613,6.5,51.294,6.58z"/>
	<path d="M64.049,5.859c-0.325-0.042-0.652-0.08-0.98-0.112l0.078-0.775c0.336,0.033,0.671,0.071,1.005,0.115L64.049,5.859z"/>
	<path d="M55.178,5.852L55.08,5.078c0.333-0.043,0.667-0.081,1.004-0.114l0.077,0.775C55.832,5.772,55.504,5.811,55.178,5.852z"/>
	<polygon points="60.108,5.575 59.58,5.571 59.121,5.574 59.111,4.795 59.58,4.792 60.121,4.796 	"/>
	<polygon points="58.795,5.575 58.268,5.571 57.809,5.574 57.798,4.795 58.268,4.792 58.809,4.796 	"/>
	<polygon points="57.494,5.575 56.966,5.571 56.507,5.574 56.497,4.795 56.966,4.792 57.507,4.796 	"/>
	<polygon points="61.391,5.575 60.863,5.571 60.404,5.574 60.394,4.795 60.863,4.792 61.404,4.796 	"/>
	<polygon points="62.641,5.575 62.114,5.571 61.655,5.574 61.644,4.795 62.114,4.792 62.655,4.796 	"/>
</g>
<g id="Layer_2">
</g>
</svg>
