<?xml version="1.0" encoding="utf-8"?>
<!-- Generator: Adobe Illustrator 16.0.0, SVG Export Plug-In . SVG Version: 6.00 Build 0)  -->
<!DOCTYPE svg PUBLIC "-//W3C//DTD SVG 1.1//EN" "http://www.w3.org/Graphics/SVG/1.1/DTD/svg11.dtd">
<svg version="1.1" xmlns="http://www.w3.org/2000/svg" xmlns:xlink="http://www.w3.org/1999/xlink" x="0px" y="0px"
	 width="121.798px" height="79.723px" viewBox="0 0 121.798 79.723" enable-background="new 0 0 121.798 79.723"
	 xml:space="preserve">
<g id="Layer_5">
</g>
<g id="Layer_4">
</g>
<g id="Layer_3">
	<g>
		<polygon points="25.801,33.933 25.033,33.798 25.123,33.301 25.89,33.445 		"/>
	</g>
	<path d="M90.745,25.536c-0.141-0.308-0.286-0.61-0.437-0.911l0.699-0.348c0.152,0.309,0.302,0.619,0.446,0.933L90.745,25.536z"/>
	<path d="M28.535,25.283l-0.706-0.332c0.147-0.313,0.299-0.623,0.455-0.931l0.695,0.354C28.827,24.674,28.679,24.978,28.535,25.283z
		"/>
	<path d="M85.563,17.48c-0.221-0.255-0.444-0.507-0.673-0.756l0.576-0.527c0.232,0.255,0.462,0.513,0.687,0.773L85.563,17.48z"/>
	<path d="M33.788,17.267l-0.587-0.514c0.228-0.26,0.459-0.516,0.694-0.769l0.571,0.531C34.236,16.763,34.01,17.013,33.788,17.267z"
		/>
	<path d="M78.357,11.163c-0.282-0.186-0.566-0.366-0.854-0.543l0.408-0.664c0.294,0.181,0.586,0.365,0.874,0.555L78.357,11.163z"/>
	<path d="M41.043,11.01l-0.423-0.656c0.29-0.187,0.583-0.369,0.879-0.547l0.4,0.67C41.611,10.648,41.325,10.827,41.043,11.01z"/>
	<path d="M69.686,7.085c-0.323-0.1-0.647-0.194-0.974-0.284l0.207-0.752c0.334,0.092,0.666,0.188,0.997,0.292L69.686,7.085z"/>
	<path d="M49.743,7.004l-0.225-0.746c0.329-0.1,0.66-0.193,0.994-0.282l0.201,0.754C50.387,6.816,50.064,6.908,49.743,7.004z"/>
	<path d="M60.223,5.577c-0.214-0.004-0.428-0.006-0.643-0.006l-0.37,0.002l-0.006-0.779l0.376-0.002c0.22,0,0.439,0.002,0.657,0.006
		L60.223,5.577z"/>
	<g>
		<polygon points="93.479,34.636 93.331,33.759 94.098,33.622 94.117,33.731 94.229,33.712 94.354,34.481 		"/>
	</g>
	<path d="M100.656,71.958l-0.127-0.77c0.339-0.057,0.675-0.122,1.006-0.197l0.172,0.762C101.36,71.83,101.01,71.899,100.656,71.958z
		"/>
	<path d="M91.675,71.359c-0.342-0.106-0.681-0.221-1.014-0.346l0.273-0.73c0.319,0.119,0.643,0.229,0.971,0.33L91.675,71.359z"/>
	<path d="M109.785,67.785l-0.498-0.6c0.265-0.22,0.521-0.444,0.772-0.676l0.529,0.572C110.328,67.323,110.059,67.558,109.785,67.785
		z"/>
	<path d="M115.61,59.616l-0.73-0.273c0.119-0.32,0.23-0.645,0.333-0.973l0.744,0.232C115.85,58.944,115.735,59.282,115.61,59.616z"
		/>
	<path d="M115.795,49.752c-0.057-0.339-0.122-0.675-0.197-1.006l0.762-0.172c0.077,0.347,0.146,0.696,0.205,1.051L115.795,49.752z"
		/>
	<path d="M111.797,40.993c-0.22-0.265-0.444-0.522-0.677-0.774l0.574-0.527c0.24,0.262,0.475,0.529,0.702,0.804L111.797,40.993z"/>
	<path d="M103.954,35.397c-0.319-0.119-0.644-0.23-0.972-0.333l0.232-0.744c0.342,0.106,0.68,0.222,1.013,0.347L103.954,35.397z"/>
	<g>
		<path d="M83.172,65.958c-0.024-0.026-0.049-0.054-0.073-0.081l-0.079,0.072l-0.521-0.58l0.66-0.607l0.265,0.305
			c0.106,0.124,0.215,0.245,0.325,0.366L83.172,65.958z"/>
	</g>
	<path d="M56.072,74.752c-0.353-0.035-0.705-0.077-1.055-0.123l0.103-0.773c0.342,0.046,0.686,0.086,1.031,0.121L56.072,74.752z"/>
	<path d="M65.067,74.504l-0.121-0.77c0.343-0.055,0.684-0.113,1.022-0.177l0.145,0.766C65.766,74.389,65.417,74.449,65.067,74.504z"
		/>
	<path d="M46.328,72.287c-0.328-0.136-0.653-0.275-0.976-0.422l0.322-0.711c0.315,0.143,0.632,0.28,0.952,0.412L46.328,72.287z"/>
	<path d="M74.667,71.53l-0.336-0.703c0.312-0.15,0.622-0.304,0.93-0.462l0.357,0.693C75.304,71.221,74.987,71.378,74.667,71.53z"/>
	<g>
		<path d="M37.42,67.161l-0.525-0.576c0.121-0.11,0.24-0.222,0.357-0.335l0.251-0.241l0.651,0.534l-0.489,0.607l-0.124-0.101
			C37.501,67.087,37.46,67.124,37.42,67.161z"/>
	</g>
	<path d="M20.795,71.896c-0.328-0.062-0.652-0.13-0.974-0.208l0.183-0.758c0.309,0.074,0.62,0.141,0.934,0.198L20.795,71.896z"/>
	<path d="M29.184,71.616l-0.194-0.756c0.31-0.079,0.616-0.166,0.919-0.261l0.232,0.744C29.825,71.442,29.506,71.533,29.184,71.616z"
		/>
	<path d="M12.281,68.003c-0.26-0.207-0.514-0.421-0.763-0.641l0.518-0.584c0.238,0.212,0.482,0.416,0.731,0.615L12.281,68.003z"/>
	<path d="M6.578,60.579c-0.132-0.304-0.256-0.61-0.374-0.92l0.729-0.275c0.112,0.298,0.232,0.593,0.359,0.883L6.578,60.579z"/>
	<path d="M5.802,51.41l-0.777-0.059c0.025-0.333,0.058-0.663,0.1-0.991l0.773,0.1C5.858,50.774,5.826,51.091,5.802,51.41z"/>
	<path d="M8.63,42.884l-0.659-0.418c0.178-0.281,0.363-0.558,0.556-0.828l0.636,0.453C8.978,42.35,8.801,42.614,8.63,42.884z"/>
	<path d="M15.126,36.674l-0.388-0.678c0.287-0.164,0.578-0.321,0.875-0.472l0.353,0.695C15.682,36.364,15.402,36.516,15.126,36.674z
		"/>
	<path d="M33.403,36.568c-0.278-0.153-0.561-0.302-0.847-0.442l0.344-0.701c0.298,0.146,0.592,0.301,0.881,0.462L33.403,36.568z"/>
	<path d="M23.771,34.234l-0.023-0.779c0.203-0.006,0.406-0.009,0.609-0.009l0.387,0.004l-0.019,0.779l-0.368-0.004
		C24.161,34.226,23.965,34.229,23.771,34.234z"/>
	<g>
		<path d="M39.745,42.366c-0.092-0.135-0.185-0.269-0.281-0.4l0.632-0.457c0.1,0.138,0.198,0.277,0.293,0.418L39.745,42.366z"/>
	</g>
</g>
<g id="Layer_2">
</g>
</svg>
